<svg width="208" height="208" viewBox="0 0 208 208" fill="none" xmlns="http://www.w3.org/2000/svg">
<path d="M102.916 123.454L121.326 95.4292H13.0905L23.2117 123.454H102.916ZM188.12 164.226L160.055 136.202H44.048L58.0679 164.304L188.12 164.226ZM153.264 204.998L113.58 176.974H13.0905L0 204.998H153.264ZM133.9 82.6813L121.326 54.6567H44.048L58.0679 82.6813H133.9ZM57.6548 41.9089H96.2549L77.51 0.0268555L57.6548 41.9089Z" fill="#F07524"/>
<path d="M252.927 204.508V98.2156H333.639V111.789H267.877V143.143H326.332V157.568H267.877V204.508H252.927Z" fill="white"/>
<path d="M329.198 204.508L379.417 98.2156H395.089L442.184 204.508H426.692L413.163 174.187H359.097L345 204.508H329.198ZM365.345 160.381H406.966L386.801 115.015L365.345 160.381Z" fill="white"/>
<path d="M545.281 98.2156V164.922C545.281 178.685 541.305 189.213 533.353 196.508C525.4 203.804 513.774 207.406 498.471 207.321C483.152 207.321 471.541 203.716 463.64 196.508C455.739 189.301 451.781 178.772 451.763 164.922V98.2156H466.713V158.574C466.713 170.308 469.295 178.961 474.459 184.535C479.622 190.109 487.634 192.888 498.496 192.87C509.41 192.87 517.448 190.101 522.612 184.561C527.776 179.02 530.358 170.36 530.358 158.574V98.2156H545.281Z" fill="white"/>
<path d="M569.888 204.508V98.2156H584.838V190.109H649.67V204.405L569.888 204.508Z" fill="white"/>
<path d="M663.845 204.508V98.2156H678.794V141.078H743.343V98.2156H758.112V204.508H743.162V155.065H678.614V204.508H663.845Z" fill="white"/>
<path d="M776.676 151.401C776.676 134.197 781.883 120.572 792.296 110.525C802.709 100.478 816.843 95.4376 834.692 95.4031C852.489 95.4031 866.553 100.444 876.881 110.525C887.209 120.606 892.372 134.232 892.372 151.401C892.372 168.604 887.165 182.212 876.752 192.225C866.339 202.237 852.205 207.269 834.356 207.321C816.574 207.321 802.477 202.289 792.064 192.225C781.651 182.161 776.521 168.553 776.676 151.401ZM792.167 151.401C792.167 164.544 795.911 174.788 803.399 182.135C810.886 189.482 821.31 193.154 834.666 193.154C847.989 193.154 858.376 189.464 865.83 182.083C873.284 174.703 877.028 164.475 877.062 151.401C877.062 138.257 873.318 128.004 865.83 120.641C858.343 113.278 847.919 109.587 834.563 109.57C821.24 109.57 810.853 113.26 803.399 120.641C795.945 128.021 792.211 138.274 792.193 151.401H792.167Z" fill="white"/>
<path d="M911.041 204.508V98.2156H966.707C978.979 98.2156 988.31 100.676 994.695 105.596C1001.08 110.516 1004.27 117.733 1004.27 127.247C1004.53 133.14 1002.94 138.967 999.73 143.917C996.363 148.473 991.564 151.763 986.098 153.258C990.626 153.653 994.837 155.757 997.871 159.142C1000.75 163.356 1002.31 168.334 1002.34 173.438L1003.63 190.625C1003.8 193.587 1004.26 196.524 1005 199.399C1005.56 201.254 1006.43 202.998 1007.58 204.56H990.125C989.539 203.182 989.131 201.731 988.912 200.25C988.543 198.013 988.303 195.755 988.189 193.489L986.898 177.748C986.278 170.419 984.471 165.464 981.502 162.832C978.532 160.2 973.24 158.936 965.649 158.936H925.938V204.56L911.041 204.508ZM959.504 111.067H925.938V145.801H960.924C971.51 145.801 978.997 144.459 983.103 141.827C987.208 139.194 989.402 134.73 989.402 128.382C989.402 122.034 987.337 117.466 983.18 114.912C979.023 112.357 971.097 111.067 959.504 111.067Z" fill="white"/>
<path d="M1026.63 204.508V98.2156H1046.9L1113.52 188.922V98.2156H1128.03V204.508H1107.86L1041.32 113.802V204.508H1026.63Z" fill="white"/>
<path d="M1152.76 95.8936V55.5341H1158.31V90.4487H1182.89V95.8936H1152.76Z" fill="white"/>
<path d="M1188.11 95.8936L1207.16 55.5341H1213.13L1230.99 95.8936H1225.11L1219.94 84.3844H1199.44L1194.07 95.8936H1188.11ZM1201.84 79.1459H1217.7L1209.95 61.9338L1201.84 79.1459Z" fill="white"/>
<path d="M1261.59 55.5339C1264.81 55.2962 1268.02 56.2107 1270.63 58.1144C1271.7 59.0439 1272.54 60.2072 1273.08 61.514C1273.63 62.821 1273.87 64.2362 1273.78 65.6496C1273.85 67.5703 1273.3 69.4621 1272.2 71.0429C1270.98 72.6446 1269.32 73.8554 1267.43 74.5266C1269.7 74.8647 1271.77 75.9988 1273.29 77.7265C1274.66 79.5494 1275.37 81.7926 1275.28 84.0746C1275.43 85.7199 1275.21 87.3795 1274.63 88.9268C1274.05 90.474 1273.12 91.8683 1271.92 93.0032C1268.77 95.1781 1264.97 96.1992 1261.15 95.8934H1239.36V55.5339H1261.59ZM1260.43 60.6949H1244.94V72.359H1259.24C1261.62 72.5569 1264.01 72.0926 1266.14 71.0171C1266.82 70.493 1267.37 69.8047 1267.72 69.0159C1268.07 68.2267 1268.22 67.3623 1268.15 66.5011C1268.23 65.6681 1268.1 64.829 1267.78 64.0558C1267.46 63.2827 1266.96 62.5986 1266.32 62.0626C1264.57 61.0049 1262.54 60.5092 1260.51 60.6433L1260.43 60.6949ZM1260.43 77.5974H1244.94V90.5001H1259.76C1262.28 90.6908 1264.81 90.1912 1267.06 89.055C1267.83 88.5402 1268.45 87.8275 1268.85 86.9921C1269.25 86.1568 1269.42 85.2291 1269.34 84.3068C1269.42 83.3427 1269.27 82.3727 1268.91 81.4757C1268.55 80.579 1267.98 79.7806 1267.25 79.1458C1265.26 77.9159 1262.94 77.3551 1260.61 77.5458L1260.43 77.5974Z" fill="white"/>
<path d="M1284.29 82.242H1290.3C1290.23 83.6185 1290.48 84.9924 1291.05 86.2493C1291.62 87.5063 1292.48 88.6098 1293.56 89.4675C1296.25 90.8845 1299.23 91.6674 1302.27 91.757C1305.32 91.8463 1308.34 91.2398 1311.11 89.9836C1312.03 89.4825 1312.8 88.7331 1313.31 87.8206C1313.83 86.9084 1314.08 85.8695 1314.03 84.8226C1314.06 84.1222 1313.94 83.4231 1313.66 82.779C1313.38 82.1349 1312.96 81.5628 1312.43 81.1066C1310.85 80.0279 1309.03 79.3544 1307.14 79.1454L1297.2 77.339C1293.96 76.9684 1290.9 75.7089 1288.34 73.7005C1287.41 72.7877 1286.68 71.6879 1286.2 70.4738C1285.73 69.2596 1285.51 67.9583 1285.58 66.6556C1285.48 64.9055 1285.84 63.1605 1286.6 61.5849C1287.37 60.0092 1288.53 58.6549 1289.97 57.6495C1293.72 55.3131 1298.1 54.2035 1302.51 54.4755C1306.72 54.2105 1310.89 55.3745 1314.34 57.7786C1315.72 58.9354 1316.82 60.3927 1317.55 62.0388C1318.27 63.6849 1318.62 65.476 1318.55 67.2749H1312.87C1312.85 66.1653 1312.57 65.075 1312.07 64.0867C1311.56 63.0986 1310.84 62.2385 1309.95 61.572C1307.56 60.1958 1304.83 59.5581 1302.08 59.7398C1299.39 59.5857 1296.72 60.156 1294.33 61.3913C1293.5 61.8672 1292.82 62.5626 1292.37 63.4008C1291.91 64.2389 1291.7 65.187 1291.75 66.1395C1291.71 66.8019 1291.83 67.4644 1292.1 68.0708C1292.36 68.6772 1292.78 69.2098 1293.3 69.6232C1294.98 70.6983 1296.89 71.3857 1298.87 71.636L1307.7 73.3908C1311.21 73.805 1314.55 75.111 1317.41 77.1842C1318.32 78.1191 1319.02 79.2388 1319.46 80.4677C1319.91 81.6965 1320.08 83.0056 1319.97 84.3065C1320.05 86.1152 1319.68 87.9151 1318.88 89.5424C1318.09 91.1696 1316.9 92.5724 1315.42 93.6222C1311.58 96.0549 1307.06 97.2109 1302.51 96.9253C1297.71 97.2566 1292.93 95.9563 1288.96 93.2351C1287.39 91.879 1286.16 90.1839 1285.35 88.2789C1284.54 86.3737 1284.18 84.309 1284.29 82.242Z" fill="white"/>
</svg>
